<?xml version="1.0" encoding="utf-8" ?>
<svg baseProfile="full" height="100%" version="1.1" viewBox="0,0,1000,120" width="100%" xmlns="http://www.w3.org/2000/svg" xmlns:ev="http://www.w3.org/2001/xml-events" xmlns:xlink="http://www.w3.org/1999/xlink"><defs /><rect fill="white" height="120" width="1000" x="0" y="0" /><path d="M0,0 M384.6861267089844,50.60979080200195 L384.59857177734375,51.18943405151367 L384.4489440917969,52.32804489135742 L384.2408752441406,54.04388427734375 L384.00616455078125,56.18168258666992 L383.75701904296875,58.60072708129883 L383.5130615234375,61.120887756347656 L383.29351806640625,63.56475067138672 L383.1287841796875,65.60906982421875 L383.0360107421875,66.9515609741211 L383.0195007324219,67.42522430419922 L383.0425109863281,67.29869842529297 L383.0780334472656,66.94087219238281 M383.6733703613281,47.89481735229492 L383.7293395996094,47.79970169067383 L383.90301513671875,47.879981994628906 L384.2430725097656,48.36248016357422 L384.77447509765625,49.44394302368164 L385.489013671875,51.12532043457031 L386.367431640625,53.297306060791016 L387.3779296875,55.77372741699219 L388.5002746582031,58.35723114013672 L389.7101745605469,60.81562423706055 L390.9376220703125,62.931514739990234 L392.0953674316406,64.52848815917969 L393.1047668457031,65.47257995605469 L393.894287109375,65.66902923583984 L394.462158203125,65.07012176513672 L394.8756103515625,63.65304946899414 L395.16656494140625,61.50582504272461 L395.3670349121094,58.8399543762207 L395.49237060546875,55.943111419677734 L395.5235595703125,53.11249923706055 L395.47601318359375,50.609867095947266 L395.3970031738281,48.6108512878418 L395.3267822265625,47.196529388427734 L395.2890625,46.37562942504883 L395.2854309082031,46.01951217651367 M400.0299072265625,57.921241760253906 L399.8182067871094,58.40556335449219 L399.53082275390625,59.31806564331055 L399.25799560546875,60.63002014160156 L399.14483642578125,62.14088439941406 L399.231689453125,63.666683197021484 L399.55291748046875,64.9828872680664 L400.1339416503906,65.89622497558594 L400.955810546875,66.22834014892578 L401.9714050292969,65.86090850830078 L403.1195373535156,64.78292846679688 L404.2942810058594,63.13029479980469 L405.38690185546875,61.18182373046875 L406.3028869628906,59.28510284423828 L406.9476318359375,57.73276138305664 L407.286376953125,56.71582794189453 L407.36663818359375,56.3121223449707 L407.2994079589844,56.53331756591797 L407.21868896484375,57.35160827636719 L407.2532043457031,58.6685676574707 L407.5667724609375,60.291873931884766 L408.2305908203125,61.9602165222168 L409.22320556640625,63.42350769042969 L410.1998596191406,64.43533325195312 L410.9010314941406,64.96725463867188 M429.1656494140625,56.737518310546875 L428.9448547363281,56.420997619628906 L428.4173278808594,55.995357513427734 L427.5376281738281,55.626644134521484 L426.36224365234375,55.5300178527832 L425.05767822265625,55.76826858520508 L423.84698486328125,56.34038162231445 L422.9451904296875,57.19220733642578 L422.51995849609375,58.25654983520508 L422.68621826171875,59.46364212036133 L423.421142578125,60.72470474243164 L424.6458740234375,61.951568603515625 L426.168212890625,63.05927276611328 L427.7283935546875,63.98752975463867 L429.06585693359375,64.69773864746094 L429.950927734375,65.18809509277344 L430.2001037597656,65.48519134521484 L429.7625732421875,65.65361022949219 L428.6522216796875,65.74422454833984 L427.0095520019531,65.80189514160156 L425.14971923828125,65.81231689453125 L423.4383544921875,65.73578643798828 L422.17578125,65.53022003173828 L421.4806213378906,65.28667449951172 L421.2318115234375,65.08106994628906 M435.2354736328125,57.79001235961914 L435.0323486328125,57.667354583740234 L434.5992431640625,57.583656311035156 L433.9246520996094,57.68809127807617 L433.1193542480469,58.135597229003906 L432.3780517578125,58.96005630493164 L431.8977966308594,60.1029167175293 L431.831787109375,61.40243911743164 L432.26788330078125,62.659637451171875 L433.16119384765625,63.660587310791016 L434.3999328613281,64.2149887084961 L435.83380126953125,64.20199584960938 L437.251953125,63.58503723144531 L438.4678955078125,62.43693923950195 L439.31451416015625,60.92657470703125 L439.6399230957031,59.26988983154297 L439.4199523925781,57.701290130615234 L438.73211669921875,56.42742156982422 L437.74212646484375,55.59318161010742 L436.67449951171875,55.28877639770508 L435.798828125,55.54574966430664 L435.30133056640625,56.2612190246582 L435.287353515625,57.24693298339844 L435.5528869628906,58.135650634765625 L435.87127685546875,58.711997985839844 M445.2288513183594,45.96250915527344 L445.09332275390625,46.20240020751953 L444.88201904296875,46.849082946777344 L444.63800048828125,48.073097229003906 L444.42333984375,49.90595245361328 L444.2806396484375,52.25123977661133 L444.255126953125,54.91412353515625 L444.3836975097656,57.65721130371094 L444.6990966796875,60.16788864135742 L445.19073486328125,62.16274642944336 L445.7809143066406,63.44194793701172 L446.29296875,64.0484848022461 L446.62542724609375,64.19649505615234 M451.300537109375,45.89567947387695 L451.24395751953125,45.62717819213867 L451.1364440917969,45.48019027709961 L450.9640197753906,45.73073196411133 L450.73394775390625,46.664066314697266 L450.468505859375,48.28722381591797 L450.2286376953125,50.47969055175781 L450.0936279296875,53.028743743896484 L450.193359375,55.75010681152344 L450.5865478515625,58.372825622558594 L451.2552490234375,60.66460037231445 L451.93719482421875,62.2855110168457 L452.43585205078125,63.17055130004883 M461.0675048828125,45.0 L461.0133361816406,45.158660888671875 L460.8710632324219,45.69086837768555 L460.62640380859375,46.7823486328125 L460.30670166015625,48.498260498046875 L459.9835510253906,50.73934555053711 L459.7362060546875,53.342811584472656 L459.65203857421875,56.10319519042969 L459.7940979003906,58.79034423828125 L460.1737365722656,61.157936096191406 L460.7358093261719,63.00018310546875 L461.27313232421875,64.15685272216797 L461.64349365234375,64.70353698730469 M456.2478332519531,55.15236282348633 L456.66473388671875,55.005767822265625 L457.55682373046875,54.81216812133789 L458.5876159667969,54.63664627075195 L459.4205627441406,54.54426956176758 M466.179931640625,60.29764938354492 L466.6092224121094,60.333580017089844 L467.43743896484375,60.24736785888672 L468.6386413574219,59.924949645996094 L470.02813720703125,59.29268264770508 L471.3997802734375,58.4033203125 L472.5666809082031,57.362754821777344 L473.37506103515625,56.30042266845703 L473.71954345703125,55.33073806762695 L473.5312194824219,54.56962203979492 L472.8331298828125,54.12986373901367 L471.7115478515625,54.120140075683594 L470.37445068359375,54.602752685546875 L469.10699462890625,55.567466735839844 L468.21337890625,56.93135452270508 L467.8888244628906,58.52725601196289 L468.3793640136719,60.1590576171875 L469.7095947265625,61.634300231933594 L471.7394714355469,62.79652786254883 L473.7226257324219,63.53628921508789 L475.1417236328125,63.895904541015625 M489.0758972167969,62.38817596435547 L489.486328125,62.13710021972656 L490.19488525390625,61.62050247192383 L491.1159362792969,60.81214141845703 L492.0364990234375,59.78874206542969 L492.8126220703125,58.626914978027344 L493.32318115234375,57.443153381347656 L493.4769592285156,56.34896469116211 L493.22723388671875,55.457462310791016 L492.566650390625,54.89076232910156 L491.55987548828125,54.77014923095703 L490.3491516113281,55.167972564697266 L489.11529541015625,56.0914421081543 L488.08642578125,57.452880859375 L487.4955139160156,59.088905334472656 L487.49993896484375,60.79512405395508 L488.3023681640625,62.31801986694336 L489.92041015625,63.451236724853516 L492.17767333984375,64.06848907470703 L494.3060607910156,64.26432800292969 L495.79022216796875,64.22578430175781 M504.99285888671875,55.064701080322266 L504.3270568847656,54.88418197631836 L503.19525146484375,54.75844955444336 L501.73114013671875,54.82329559326172 L500.29998779296875,55.205482482910156 L499.1619873046875,55.86924743652344 L498.55499267578125,56.736629486083984 L498.5980224609375,57.72152328491211 L499.3564147949219,58.76154327392578 L500.7601013183594,59.77878952026367 L502.64837646484375,60.72389221191406 L504.74444580078125,61.55875015258789 L506.7188720703125,62.24492645263672 L508.24176025390625,62.77506637573242 L509.067626953125,63.14796829223633 L509.08087158203125,63.379093170166016 L508.314453125,63.51886749267578 L506.9391784667969,63.607337951660156 L505.2428283691406,63.655487060546875 L503.5585632324219,63.68589401245117 L502.29400634765625,63.649295806884766 L501.7474365234375,63.49652099609375 L502.0093994140625,63.21046829223633 L502.67242431640625,62.89928436279297 L503.32379150390625,62.65180206298828 M523.8900146484375,56.39249801635742 L523.7680053710938,56.06801223754883 L523.44091796875,55.586734771728516 L522.8067016601562,55.08744430541992 L521.8381958007812,54.8123893737793 L520.5841674804688,54.90013122558594 L519.183349609375,55.410030364990234 L517.866943359375,56.305580139160156 L516.8588256835938,57.46562957763672 L516.3289794921875,58.718231201171875 L516.370849609375,59.871036529541016 L516.9747314453125,60.745704650878906 L518.048828125,61.18421936035156 L519.4801025390625,61.097686767578125 L521.0932006835938,60.46867370605469 L522.6923828125,59.40253448486328 L524.0859375,58.10034942626953 L525.1361694335938,56.82132339477539 L525.7778930664062,55.76346969604492 L526.0576171875,55.075538635253906 L526.06201171875,54.83309555053711 L525.892578125,55.06520080566406 L525.647216796875,55.79354476928711 L525.4144287109375,56.981605529785156 L525.3336181640625,58.48352813720703 L525.5127563476562,60.079349517822266 L525.988037109375,61.521881103515625 L526.53955078125,62.53630065917969 L526.9776611328125,63.077674865722656 M531.1072998046875,47.53551483154297 L531.1270141601562,47.777645111083984 L531.143798828125,48.369651794433594 L531.1304931640625,49.40873336791992 L531.0572509765625,50.85813903808594 L530.929443359375,52.58649444580078 L530.8043212890625,54.411170959472656 L530.7691040039062,56.13081359863281 L530.8995361328125,57.57335662841797 L531.2576293945312,58.62721633911133 L531.8591918945312,59.245849609375 L532.6895751953125,59.46405792236328 L533.7291259765625,59.382415771484375 L534.9219970703125,59.138587951660156 L536.1715087890625,58.8942985534668 L537.3746337890625,58.798187255859375 L538.3945922851562,58.9522819519043 L539.10400390625,59.38813018798828 L539.4229736328125,60.07984924316406 L539.3015747070312,60.91679763793945 L538.73486328125,61.77010726928711 L537.7639770507812,62.50027084350586 L536.4676513671875,63.01277160644531 L534.9642333984375,63.265586853027344 L533.4351806640625,63.257225036621094 L532.080078125,62.996795654296875 L531.0548706054688,62.54267501831055 L530.4379272460938,62.0789680480957 L530.1719360351562,61.741058349609375 M541.1353759765625,62.14984893798828 L541.8340454101562,61.96390151977539 L542.96044921875,61.556617736816406 L544.3555297851562,60.8963508605957 L545.712890625,60.02324295043945 L546.9105834960938,59.021568298339844 L547.85546875,57.988197326660156 L548.4964599609375,57.02409362792969 L548.7340698242188,56.220035552978516 L548.5090942382812,55.67263412475586 L547.8319091796875,55.459373474121094 L546.7861328125,55.66001510620117 L545.5479736328125,56.30381774902344 L544.37109375,57.35165023803711 L543.471923828125,58.6781120300293 L543.0559692382812,60.118186950683594 L543.2510986328125,61.47782897949219 L544.1005249023438,62.60030746459961 L545.5553588867188,63.367061614990234 L547.4955444335938,63.69857406616211 L549.6953735351562,63.56431579589844 L551.9133911132812,63.00593948364258 L553.89599609375,62.13594055175781 L555.449462890625,61.14397048950195 L556.4893798828125,60.215049743652344 L557.0399780273438,59.49842834472656 L557.1937866210938,59.100486755371094 L557.0958251953125,59.086151123046875 L556.8597412109375,59.493255615234375 L556.564697265625,60.32992172241211 L556.2943725585938,61.46284484863281 L556.0968017578125,62.69668197631836 L555.9931640625,63.78629684448242 L556.0079345703125,64.50005340576172 L556.1534423828125,64.67706298828125 L556.4158935546875,64.27854919433594 L556.80126953125,63.31402587890625 L557.281005859375,61.9388427734375 L557.839111328125,60.33930587768555 L558.4761962890625,58.70164489746094 L559.3011474609375,57.19075012207031 L560.3607788085938,55.95157241821289 L561.6614379882812,55.049041748046875 L562.8397216796875,54.52259063720703 L563.6535034179688,54.298648834228516 M576.1224365234375,46.37824630737305 L576.0349731445312,46.68280792236328 L575.8497314453125,47.409339904785156 L575.5379638671875,48.67210388183594 L575.1142578125,50.45668411254883 L574.6178588867188,52.68229675292969 L574.11474609375,55.194026947021484 L573.7091064453125,57.80689239501953 L573.5066528320312,60.30971908569336 L573.59228515625,62.47419357299805 L574.0445556640625,64.10362243652344 L574.8856201171875,65.0876235961914 L576.1467895507812,65.31829833984375 L577.7554931640625,64.83349609375 L579.5491333007812,63.79033660888672 L581.0560302734375,62.687923431396484 L582.0230712890625,61.879539489746094 M587.5452270507812,56.71040725708008 L587.2744140625,56.52098083496094 L586.7020263671875,56.35287857055664 L585.763427734375,56.38431167602539 L584.5253295898438,56.80794143676758 L583.1373291015625,57.66156005859375 L581.82861328125,58.857181549072266 L580.81689453125,60.208160400390625 L580.2979736328125,61.520225524902344 L580.353515625,62.59097671508789 L580.97021484375,63.25046920776367 L582.0682983398438,63.38471221923828 L583.49951171875,62.940711975097656 L585.0513916015625,61.95357894897461 L586.5305786132812,60.58645248413086 L587.7728271484375,59.08477783203125 L588.6742553710938,57.70348358154297 L589.2127075195312,56.636863708496094 L589.4251708984375,56.009490966796875 L589.38623046875,55.87765121459961 L589.1987915039062,56.26656723022461 L588.9713134765625,57.169437408447266 L588.816162109375,58.482967376708984 L588.8508911132812,59.980445861816406 L589.1629638671875,61.40395736694336 L589.8112182617188,62.49913787841797 L590.787841796875,63.074867248535156 L592.028076171875,63.03951644897461 L593.4150390625,62.410865783691406 L594.8245849609375,61.278018951416016 L596.0997314453125,59.861968994140625 L597.1185302734375,58.431732177734375 L597.8126220703125,57.229087829589844 L598.181640625,56.41409683227539 L598.2752685546875,56.07323455810547 L598.1931762695312,56.20966339111328 L598.0162353515625,56.829097747802734 L597.8324584960938,57.87084197998047 L597.762939453125,59.17636489868164 L597.916015625,60.50308609008789 L598.3643798828125,61.58403778076172 L599.1417236328125,62.1948356628418 L600.2137451171875,62.228614807128906 L601.48486328125,61.67385482788086 L602.855224609375,60.62686538696289 L604.188720703125,59.290645599365234 L605.3294677734375,57.925289154052734 L606.1776123046875,56.763938903808594 L606.6900024414062,55.981266021728516 L606.8705444335938,55.66618347167969 L606.7918701171875,55.84364318847656 L606.547119140625,56.51261520385742 L606.239013671875,57.61586380004883 L606.0241088867188,58.992794036865234 L606.050537109375,60.450531005859375 L606.4898681640625,61.727027893066406 L607.389404296875,62.5994873046875 L608.666015625,62.961883544921875 L609.8709716796875,62.96385955810547 L610.7071533203125,62.803226470947266 M619.3233032226562,50.03438949584961 L619.0877685546875,49.43397521972656 L618.631591796875,48.595619201660156 L617.9644775390625,47.75769805908203 L617.1759033203125,47.27042007446289 L616.331298828125,47.25175094604492 L615.4810791015625,47.76835250854492 L614.6695556640625,48.826988220214844 L613.9243774414062,50.434547424316406 L613.311279296875,52.53845977783203 L612.8901977539062,55.037166595458984 L612.6969604492188,57.786468505859375 L612.7542724609375,60.632965087890625 L613.0447387695312,63.3575553894043 L613.4844970703125,65.72860717773438 L613.9074096679688,67.40343475341797 L614.1986694335938,68.31698608398438 M610.1435546875,57.85759735107422 L610.3244018554688,57.89448928833008 L610.7897338867188,57.99333190917969 L611.6373291015625,58.17308807373047 L612.9217529296875,58.39015579223633 L614.5721435546875,58.57792663574219 L616.4112548828125,58.6714973449707 L617.9490966796875,58.67767333984375 L618.9306030273438,58.63697814941406 M621.0974731445312,59.90465545654297 L621.237548828125,59.742210388183594 L621.6011352539062,59.344276428222656 L622.2431030273438,58.641441345214844 L623.0950927734375,57.68070983886719 L623.9693603515625,56.58962631225586 L624.7005615234375,55.53212356567383 L625.1455078125,54.64896774291992 L625.2288818359375,54.04269027709961 L624.943115234375,53.75606918334961 L624.3136596679688,53.834373474121094 L623.3800048828125,54.297603607177734 L622.307861328125,55.1251220703125 L621.3001708984375,56.238441467285156 L620.589111328125,57.521766662597656 L620.3865966796875,58.8102912902832 L620.8394165039062,59.94199752807617 L621.9417724609375,60.75360107421875 L623.6046142578125,61.115196228027344 L625.6329345703125,60.96009063720703 L627.7884521484375,60.319801330566406 L629.825927734375,59.30589294433594 L631.5426025390625,58.11771011352539 L632.776123046875,56.958457946777344 L633.4998779296875,55.99721145629883 L633.78271484375,55.344207763671875 L633.7587890625,55.06010055541992 L633.5647583007812,55.17689514160156 L633.3013916015625,55.72344207763672 L633.0343627929688,56.65851974487305 L632.8644409179688,57.8613395690918 L632.86572265625,59.14207077026367 L633.1065063476562,60.287479400634766 L633.6319580078125,61.119014739990234 L634.4579467773438,61.51869583129883 L635.57666015625,61.426780700683594 L636.9589233398438,60.88710021972656 L638.486572265625,60.03504180908203 L639.9887084960938,59.07045364379883 L641.299072265625,58.2033805847168 L642.3043823242188,57.59791564941406 L642.9886474609375,57.34455108642578 L643.4442138671875,57.49890899658203 L643.7913818359375,58.05228042602539 L644.1318359375,58.959110260009766 L644.5513305664062,60.14165115356445 L644.9466552734375,61.22059631347656 L645.231201171875,61.961761474609375 " fill="none" stroke="black" stroke-linecap="round" stroke-width="2" /></svg>