<?xml version="1.0" encoding="utf-8" ?>
<svg baseProfile="full" height="100%" version="1.1" viewBox="0,0,1000,300" width="100%" xmlns="http://www.w3.org/2000/svg" xmlns:ev="http://www.w3.org/2001/xml-events" xmlns:xlink="http://www.w3.org/1999/xlink"><defs /><rect fill="white" height="300" width="1000" x="0" y="0" /><path d="M0,0 M370.1028747558594,50.505306243896484 L370.1300048828125,51.128822326660156 L370.1660461425781,52.348609924316406 L370.20233154296875,54.1951904296875 L370.2427978515625,56.511253356933594 L370.3022766113281,59.17120361328125 L370.3653564453125,62.01271438598633 L370.419677734375,64.85676574707031 L370.4512023925781,67.48311614990234 L370.460205078125,69.68021392822266 L370.4645080566406,71.27729797363281 L370.479736328125,72.15003204345703 L370.508056640625,72.23029327392578 L370.5496826171875,71.49343872070312 L370.6088562011719,69.93736267089844 L370.69451904296875,67.66607666015625 L370.79803466796875,64.86345672607422 L370.9069519042969,61.75690841674805 L371.0085754394531,58.572879791259766 L371.0929870605469,55.51565933227539 L371.1716613769531,52.76427459716797 L371.2598876953125,50.49725341796875 L371.36090087890625,48.84796905517578 L371.480712890625,47.894996643066406 L371.6340637207031,47.63875961303711 L371.858154296875,48.019187927246094 L372.2056579589844,48.955848693847656 L372.7192687988281,50.30939865112305 L373.40447998046875,51.875457763671875 L374.2447509765625,53.40876770019531 L375.2026062011719,54.658599853515625 L376.2485046386719,55.423805236816406 L377.3561096191406,55.596031188964844 L378.49920654296875,55.14759063720703 L379.64141845703125,54.13302230834961 L380.7466125488281,52.6663932800293 L381.7799987792969,50.921043395996094 L382.7009582519531,49.120018005371094 L383.47332763671875,47.47888946533203 L384.05303955078125,46.170684814453125 L384.4247131347656,45.320716857910156 L384.59381103515625,45.0 L384.59771728515625,45.25786590576172 L384.46832275390625,46.15106201171875 L384.2415771484375,47.67878341674805 L383.92303466796875,49.7815055847168 L383.541015625,52.34980773925781 L383.12615966796875,55.232215881347656 L382.7279968261719,58.26495361328125 L382.4060363769531,61.29938888549805 L382.20416259765625,64.1599349975586 L382.1198425292969,66.68365478515625 L382.16552734375,68.68208312988281 L382.3304443359375,70.02693176269531 L382.60028076171875,70.69220733642578 L382.87786865234375,70.8699722290039 L383.08819580078125,70.80233764648438 M393.7075500488281,60.9869499206543 L393.67578125,60.62767028808594 L393.49267578125,60.08782958984375 L393.06378173828125,59.51436996459961 L392.3298645019531,59.14227294921875 L391.3169860839844,59.1124267578125 L390.10955810546875,59.52178955078125 L388.84271240234375,60.40013122558594 L387.6559143066406,61.714385986328125 L386.6993408203125,63.35630798339844 L386.09503173828125,65.12769317626953 L385.92742919921875,66.80757141113281 L386.2102966308594,68.1812515258789 L386.8880615234375,69.08558654785156 L387.85394287109375,69.41836547851562 L388.96563720703125,69.14500427246094 L390.0980529785156,68.29151153564453 L391.15887451171875,66.94895935058594 L392.08056640625,65.26199340820312 L392.82086181640625,63.427696228027344 L393.3761901855469,61.67486572265625 L393.74444580078125,60.19550704956055 L393.95770263671875,59.127716064453125 L394.0520324707031,58.54896545410156 L394.0800476074219,58.4951171875 L394.09307861328125,58.98009490966797 L394.12750244140625,60.00568389892578 L394.1844482421875,61.49540328979492 L394.2707214355469,63.31983947753906 L394.38775634765625,65.31201171875 L394.5625915527344,67.28715515136719 L394.8201599121094,69.06802368164062 L395.2014465332031,70.42627716064453 L395.7052001953125,71.17993927001953 L396.31048583984375,71.27645111083984 L396.8473815917969,70.99243927001953 L397.2117614746094,70.62760925292969 M401.0480041503906,48.94882583618164 L401.10595703125,48.92439651489258 L401.2021484375,49.128684997558594 L401.3140563964844,49.77110290527344 L401.40545654296875,51.013492584228516 L401.446533203125,52.8415412902832 L401.41766357421875,55.13456344604492 L401.3150939941406,57.712982177734375 L401.1673889160156,60.384090423583984 L401.01617431640625,62.9360237121582 L400.9112854003906,65.17009735107422 L400.87188720703125,66.93275451660156 L400.9087219238281,68.11392974853516 L401.0285949707031,68.65568542480469 L401.258544921875,68.54730987548828 L401.64837646484375,67.81290435791016 L402.25543212890625,66.53455352783203 L403.0865173339844,64.87062072753906 L404.127685546875,63.021705627441406 L405.33050537109375,61.196266174316406 L406.6124267578125,59.55455017089844 L407.85577392578125,58.196533203125 L408.955322265625,57.162261962890625 L409.7331848144531,56.49896240234375 L410.15716552734375,56.162513732910156 M402.0344543457031,63.126739501953125 L402.2503662109375,63.55499267578125 L402.7253723144531,64.23330688476562 L403.49371337890625,65.06441497802734 L404.5061340332031,65.86275482177734 L405.67425537109375,66.56797790527344 L406.8924255371094,67.14468383789062 L408.05859375,67.59135437011719 L409.0986022949219,67.8246078491211 L409.9449768066406,67.78288269042969 L410.5733337402344,67.45213317871094 L410.95880126953125,67.02009582519531 L411.1432189941406,66.65863800048828 M411.4273986816406,58.98290252685547 L411.50537109375,59.28627395629883 L411.61846923828125,59.911624908447266 L411.74462890625,60.89564514160156 L411.8616943359375,62.1729736328125 L411.97515869140625,63.65309143066406 L412.0985107421875,65.20323944091797 L412.251953125,66.69302368164062 L412.42950439453125,67.91053771972656 L412.61749267578125,68.67927551269531 L412.80218505859375,68.92037963867188 L412.94146728515625,68.81173706054688 L413.0231628417969,68.57943725585938 M412.6254577636719,51.8802604675293 L412.6258239746094,51.85597610473633 L412.66943359375,51.92462921142578 L412.736572265625,52.0519905090332 L412.8074035644531,52.20381164550781 M417.0659484863281,60.227500915527344 L417.0908203125,60.38921356201172 L417.1080322265625,60.76778793334961 L417.0982666015625,61.43855667114258 L417.0520324707031,62.401859283447266 L416.9859619140625,63.60244369506836 L416.93414306640625,64.91421508789062 L416.9255676269531,66.16824340820312 L416.9599914550781,67.21369171142578 L417.03863525390625,67.93846893310547 L417.16107177734375,68.25362396240234 L417.3248596191406,68.1056900024414 L417.5474548339844,67.47254180908203 L417.85345458984375,66.379638671875 L418.2597351074219,64.94879150390625 L418.8187255859375,63.35234832763672 L419.5586242675781,61.754478454589844 L420.4642333984375,60.30431365966797 L421.48883056640625,59.127899169921875 L422.5473937988281,58.304988861083984 L423.5458984375,57.90422821044922 L424.4306640625,57.969600677490234 L425.1634521484375,58.49992370605469 L425.71807861328125,59.458614349365234 L426.0923156738281,60.78190994262695 L426.30279541015625,62.350189208984375 L426.3863220214844,64.02120208740234 L426.38018798828125,65.64645385742188 L426.3564758300781,67.05465698242188 L426.3690185546875,68.09664916992188 L426.4590759277344,68.69759368896484 L426.5865783691406,68.93038177490234 L426.70465087890625,68.9437026977539 M435.37823486328125,61.17753601074219 L435.3913879394531,60.81249237060547 L435.28662109375,60.27963638305664 L434.9447326660156,59.732242584228516 L434.2962646484375,59.42619323730469 L433.3731384277344,59.493160247802734 L432.2813720703125,60.00154113769531 L431.1759033203125,60.90495681762695 L430.2310791015625,62.11915588378906 L429.5872802734375,63.48221206665039 L429.3731384277344,64.81929779052734 L429.64434814453125,65.95388793945312 L430.384765625,66.75157165527344 L431.4893798828125,67.1120376586914 L432.8267822265625,67.01270294189453 L434.21136474609375,66.4572982788086 L435.4859619140625,65.51288604736328 L436.5186462402344,64.27869415283203 L437.2317199707031,62.901580810546875 L437.5859069824219,61.55055236816406 L437.6405944824219,60.387935638427734 L437.490966796875,59.52347946166992 L437.26605224609375,59.03428268432617 L437.0771484375,58.96025848388672 L437.0015869140625,59.33390808105469 L437.055419921875,60.183319091796875 L437.25482177734375,61.49032974243164 L437.59033203125,63.20154571533203 L438.0367431640625,65.22933197021484 L438.5511474609375,67.48104858398438 L439.0745849609375,69.8645248413086 L439.52630615234375,72.2821044921875 L439.83941650390625,74.60448455810547 L439.9594421386719,76.70451354980469 L439.8504333496094,78.45553588867188 L439.494140625,79.7785415649414 L438.88916015625,80.64051055908203 L438.0423889160156,81.0372314453125 L436.97564697265625,80.96804809570312 L435.7623291015625,80.47113800048828 L434.5116271972656,79.60678100585938 L433.3455505371094,78.46647644042969 L432.38836669921875,77.17086029052734 L431.73626708984375,75.82268524169922 L431.4640808105469,74.47459411621094 L431.5900573730469,73.20510864257812 L432.0533447265625,72.08807373046875 L432.5877685546875,71.27799987792969 L432.99542236328125,70.82420349121094 M452.4965515136719,59.012420654296875 L452.47698974609375,59.18583297729492 L452.4583740234375,59.65022659301758 L452.44635009765625,60.5075569152832 L452.44952392578125,61.76689910888672 L452.47320556640625,63.346412658691406 L452.521728515625,65.1025161743164 L452.59075927734375,66.84136199951172 L452.67950439453125,68.39376831054688 L452.766357421875,69.59486389160156 L452.8406066894531,70.31675720214844 L452.9020080566406,70.47174072265625 L452.97235107421875,70.02388000488281 L453.0778503417969,68.97306823730469 L453.25213623046875,67.41816711425781 L453.52020263671875,65.51859283447266 L453.91204833984375,63.4722785949707 L454.43994140625,61.47880554199219 L455.1029968261719,59.70595932006836 L455.8786926269531,58.287635803222656 L456.7160949707031,57.323463439941406 L457.5586853027344,56.88479995727539 L458.3689880371094,57.013893127441406 L459.1143493652344,57.72013854980469 L459.75885009765625,58.95000457763672 L460.27349853515625,60.60565948486328 L460.6271667480469,62.4948844909668 L460.8103332519531,64.36166381835938 L460.8691101074219,65.97012329101562 L460.85382080078125,67.15013885498047 L460.8233947753906,67.79171752929688 L460.8253173828125,67.87759399414062 L460.88934326171875,67.41360473632812 L461.04339599609375,66.42408752441406 L461.3460998535156,65.0151138305664 L461.82080078125,63.35818099975586 L462.4881286621094,61.64069366455078 L463.32440185546875,60.06296920776367 L464.2861633300781,58.77682876586914 L465.316162109375,57.880332946777344 L466.36688232421875,57.450923919677734 L467.3761901855469,57.53647994995117 L468.287841796875,58.14109420776367 L469.0352783203125,59.22216796875 L469.5936279296875,60.67929458618164 L469.9578552246094,62.35882568359375 L470.1619873046875,64.09107971191406 L470.27337646484375,65.70405578613281 L470.39190673828125,66.96513366699219 L470.591064453125,67.69322204589844 L470.92095947265625,67.81307983398438 L471.2666320800781,67.56343078613281 L471.5286560058594,67.22545623779297 M473.4197692871094,57.30779266357422 L473.5274658203125,57.550994873046875 L473.7607116699219,58.08906173706055 L474.1375732421875,58.97509002685547 L474.6541748046875,60.15088653564453 L475.2984619140625,61.510284423828125 L476.026611328125,62.9004020690918 L476.83978271484375,64.1213607788086 L477.72784423828125,65.0135498046875 L478.65509033203125,65.48204803466797 L479.4279479980469,65.61302947998047 L479.93328857421875,65.56301879882812 M483.3629150390625,57.78687286376953 L483.1226806640625,58.009521484375 L482.6517333984375,58.55797576904297 L481.91790771484375,59.54606628417969 L480.96795654296875,61.007240295410156 L479.85089111328125,62.94072341918945 L478.62542724609375,65.28236389160156 L477.3748779296875,67.94676208496094 L476.18597412109375,70.80052185058594 L475.132080078125,73.67472839355469 L474.271240234375,76.3730697631836 L473.7192687988281,78.66049194335938 L473.55078125,80.32279205322266 L473.7943115234375,81.25811767578125 L474.217041015625,81.60126495361328 L474.60650634765625,81.60415649414062 M493.63092041015625,56.21529769897461 L493.63616943359375,56.51953887939453 L493.6466064453125,57.1817626953125 L493.6561584472656,58.26906204223633 L493.6671142578125,59.734676361083984 L493.71099853515625,61.48789978027344 L493.8148498535156,63.35205078125 L494.02838134765625,65.11804962158203 L494.3952941894531,66.57926177978516 L494.9225158691406,67.54113006591797 L495.5994873046875,67.89054870605469 L496.3978576660156,67.596923828125 L497.2587890625,66.71292114257812 L498.12005615234375,65.36651611328125 L498.917236328125,63.7728385925293 L499.58245849609375,62.16135025024414 L500.0701904296875,60.75115203857422 L500.37823486328125,59.7115478515625 L500.52545166015625,59.14918518066406 L500.5491027832031,59.10329818725586 L500.49072265625,59.59183883666992 L500.392822265625,60.58704376220703 L500.31951904296875,61.98318099975586 L500.3742980957031,63.61115264892578 L500.63458251953125,65.23599243164062 L501.16119384765625,66.62869262695312 L501.9454345703125,67.60659790039062 L502.93206787109375,68.06649780273438 L504.0523376464844,67.962646484375 L505.2275085449219,67.30103302001953 L506.354736328125,66.11271667480469 L507.33929443359375,64.5012435913086 L508.0874328613281,62.6141242980957 L508.53472900390625,60.648616790771484 L508.6765441894531,58.804115295410156 L508.55462646484375,57.232093811035156 L508.254150390625,56.06415557861328 L507.88372802734375,55.37926483154297 L507.553466796875,55.17430877685547 L507.33233642578125,55.263877868652344 L507.2288818359375,55.451133728027344 M517.7402954101562,59.05080032348633 L517.5134887695312,58.5180549621582 L517.0441284179688,57.73849868774414 L516.2876586914062,56.935298919677734 L515.2776489257812,56.4528694152832 L514.0596923828125,56.44676208496094 L512.74951171875,56.98921203613281 L511.49267578125,58.04410171508789 L510.44708251953125,59.506446838378906 L509.74932861328125,61.216365814208984 L509.47900390625,62.95404815673828 L509.654541015625,64.502685546875 L510.267578125,65.679443359375 L511.2553405761719,66.35009002685547 L512.5098876953125,66.43032836914062 L513.9054565429688,65.91658020019531 L515.2951049804688,64.86308288574219 L516.5608520507812,63.410099029541016 L517.6318359375,61.76156997680664 L518.4491577148438,60.141273498535156 L518.9910888671875,58.7345085144043 L519.26708984375,57.691226959228516 L519.3139038085938,57.10075759887695 L519.2005615234375,57.012306213378906 L518.99755859375,57.445655822753906 L518.7559814453125,58.39580154418945 L518.5328369140625,59.7790412902832 L518.36572265625,61.45524215698242 L518.3369140625,63.2421875 L518.5045776367188,64.9217529296875 L518.8831787109375,66.31574249267578 L519.3052368164062,67.25696563720703 L519.6367797851562,67.74446105957031 M525.140380859375,57.42256164550781 L525.0645751953125,57.32220458984375 L524.9136352539062,57.37876892089844 L524.7048950195312,57.77906799316406 L524.50341796875,58.660701751708984 L524.3856201171875,59.9344482421875 L524.439208984375,61.412471771240234 L524.7113647460938,62.84501647949219 L525.229736328125,64.02928924560547 L526.0123291015625,64.80033111572266 L527.0413818359375,65.05671691894531 L528.2718505859375,64.74710083007812 L529.6282958984375,63.90640640258789 L531.00048828125,62.63901901245117 L532.2606201171875,61.125274658203125 L533.3133544921875,59.592124938964844 L534.0777587890625,58.233253479003906 L534.5316772460938,57.19474411010742 L534.6907348632812,56.59331130981445 L534.6102294921875,56.50276184082031 L534.35302734375,56.977806091308594 L534.0021362304688,58.053401947021484 L533.6337890625,59.676326751708984 L533.3168334960938,61.74482727050781 L533.1011962890625,64.14209747314453 L532.9927368164062,66.74169158935547 L532.9733276367188,69.43440246582031 L532.9937744140625,72.1089859008789 L533.003173828125,74.64064025878906 L532.946533203125,76.90826416015625 L532.7916870117188,78.80802917480469 L532.5096435546875,80.28059387207031 L532.0914306640625,81.30503845214844 L531.5213623046875,81.8853759765625 L530.8060913085938,82.05431365966797 L529.949462890625,81.84158325195312 L528.98388671875,81.28053283691406 L527.978515625,80.43224334716797 L527.0269165039062,79.36858367919922 L526.2332763671875,78.17511749267578 L525.7547607421875,76.90957641601562 L525.677490234375,75.63539123535156 L526.00634765625,74.41862487792969 L526.490234375,73.47799682617188 L526.904296875,72.90806579589844 M555.4387817382812,60.271793365478516 L555.1922607421875,59.89265823364258 L554.6982421875,59.34768295288086 L553.8936157226562,58.79706573486328 L552.784423828125,58.50491714477539 L551.3932495117188,58.619842529296875 L549.815185546875,59.22629928588867 L548.2254638671875,60.325958251953125 L546.8515625,61.82355499267578 L545.8936767578125,63.52923583984375 L545.4818115234375,65.20143127441406 L545.6561279296875,66.60946655273438 L546.3681640625,67.55484771728516 L547.5167846679688,67.90365600585938 L548.9825439453125,67.56500244140625 L550.6414794921875,66.51385498046875 L552.3696899414062,64.79653930664062 L554.0394287109375,62.53909683227539 L555.5415649414062,59.924068450927734 L556.791015625,57.1747932434082 L557.7379150390625,54.52537536621094 L558.3731689453125,52.197574615478516 L558.7379150390625,50.35992431640625 L558.87255859375,49.12434387207031 L558.8434448242188,48.564979553222656 L558.7053833007812,48.72351837158203 L558.4876708984375,49.62282943725586 L558.229736328125,51.24848556518555 L557.9862670898438,53.47593688964844 L557.800537109375,56.09833526611328 L557.7268676757812,58.861968994140625 L557.7874145507812,61.51079559326172 L558.023193359375,63.803871154785156 L558.4586791992188,65.57247161865234 L559.0872192382812,66.72374725341797 L559.698486328125,67.31104278564453 L560.1441040039062,67.50533294677734 M567.2620849609375,60.023162841796875 L566.95703125,59.58381271362305 L566.3607177734375,59.006553649902344 L565.4548950195312,58.51752853393555 L564.3419799804688,58.420738220214844 L563.1422729492188,58.807518005371094 L562.0313720703125,59.69221878051758 L561.1683349609375,60.96135711669922 L560.7142944335938,62.46166229248047 L560.7469482421875,63.98331069946289 L561.2882080078125,65.30824279785156 L562.2684326171875,66.2504653930664 L563.5711669921875,66.69660186767578 L565.030029296875,66.5737533569336 L566.4647216796875,65.87808227539062 L567.688232421875,64.679931640625 L568.5565185546875,63.152488708496094 L568.9675903320312,61.526512145996094 L568.9189453125,60.03124237060547 L568.484619140625,58.843116760253906 L567.8275756835938,58.067054748535156 L567.1282958984375,57.71174621582031 L566.5884399414062,57.64845275878906 L566.2811889648438,57.72181701660156 M573.61083984375,58.19272994995117 L573.4719848632812,58.20173645019531 L573.2191162109375,58.373939514160156 L572.8529052734375,58.84457015991211 L572.4346313476562,59.7019157409668 L572.0360717773438,60.91116714477539 L571.7711181640625,62.359317779541016 L571.7547607421875,63.87392044067383 L572.0748291015625,65.25442504882812 L572.7470703125,66.30713653564453 L573.72607421875,66.87896728515625 L574.9264526367188,66.88736724853516 L576.2294311523438,66.322021484375 L577.501953125,65.27055358886719 L578.6183471679688,63.9009895324707 L579.4678955078125,62.428382873535156 L579.9971313476562,61.0738410949707 L580.2245483398438,60.0145263671875 L580.20068359375,59.345455169677734 L579.9996337890625,59.11955642700195 L579.690673828125,59.36629104614258 L579.3287963867188,60.08621597290039 L579.0048828125,61.220829010009766 L578.83349609375,62.637699127197266 L578.9173583984375,64.13082122802734 L579.3223876953125,65.4888687133789 L580.04296875,66.5407485961914 L581.0060424804688,67.17761993408203 L582.1336059570312,67.33734130859375 L583.3455200195312,66.99014282226562 L584.55908203125,66.1393814086914 L585.6804809570312,64.84883117675781 L586.6011962890625,63.248477935791016 L587.2125854492188,61.52383804321289 L587.4832763671875,59.88338088989258 L587.4505615234375,58.480796813964844 L587.223876953125,57.45778274536133 L586.9334716796875,56.88118362426758 L586.679931640625,56.73471450805664 L586.512451171875,56.83810806274414 L586.4354248046875,57.01703643798828 M592.3514404296875,58.09479522705078 L592.2967529296875,57.797821044921875 L592.2083129882812,57.49065399169922 L592.0955200195312,57.38336181640625 L591.980712890625,57.721004486083984 L591.8704833984375,58.55072021484375 L591.7537841796875,59.81028747558594 L591.6226196289062,61.351802825927734 L591.4942016601562,63.01124572753906 L591.3984375,64.58971405029297 L591.35693359375,65.91414642333984 L591.3812866210938,66.84571075439453 L591.458251953125,67.28903198242188 L591.5786743164062,67.19994354248047 L591.7742309570312,66.56539916992188 L592.1036376953125,65.4342269897461 L592.61328125,63.932010650634766 L593.3336181640625,62.235076904296875 L594.256591796875,60.54473876953125 L595.3201904296875,59.04939270019531 L596.4583129882812,57.88747024536133 L597.6006469726562,57.165531158447266 L598.6812744140625,56.9456787109375 L599.6488037109375,57.24934768676758 L600.4647827148438,58.05411148071289 L601.0753784179688,59.29047393798828 L601.4654541015625,60.840850830078125 L601.6490478515625,62.566436767578125 L601.7021484375,64.29042053222656 L601.7181396484375,65.82638549804688 L601.7801513671875,67.01719665527344 L601.872802734375,67.76072692871094 L601.9642944335938,68.10260772705078 M607.7562255859375,48.926414489746094 L607.7738037109375,48.94085693359375 L607.80419921875,49.18374252319336 L607.8302001953125,49.832218170166016 L607.82177734375,51.00785827636719 L607.746337890625,52.680206298828125 L607.5809936523438,54.743980407714844 L607.3427734375,57.06167984008789 L607.0916137695312,59.47040557861328 L606.892333984375,61.78389358520508 L606.7938232421875,63.82634353637695 L606.7951049804688,65.4671401977539 L606.84521484375,66.55072784423828 L606.891845703125,67.02649688720703 L606.90478515625,66.92393493652344 L606.8894653320312,66.53718566894531 L606.867431640625,66.14143371582031 M603.4488525390625,59.04258346557617 L603.5360107421875,58.9054069519043 L603.8487548828125,58.7567024230957 L604.5111083984375,58.67991638183594 L605.5882568359375,58.757625579833984 L607.0487060546875,58.970176696777344 L608.7835693359375,59.24855041503906 L610.6927490234375,59.49311065673828 L612.6390380859375,59.641326904296875 L614.4722900390625,59.66736602783203 L615.8651123046875,59.618621826171875 L616.6906127929688,59.55401611328125 M619.6904296875,59.28725814819336 L619.274658203125,59.201316833496094 L618.5007934570312,59.15497589111328 L617.39794921875,59.25848388671875 L616.1529541015625,59.63665008544922 L614.9578857421875,60.34783172607422 L614.0048828125,61.38075637817383 L613.4441528320312,62.64805221557617 L613.3881225585938,64.00458526611328 L613.8663330078125,65.25304412841797 L614.8348388671875,66.19632720947266 L616.2044067382812,66.7002944946289 L617.8055419921875,66.692626953125 L619.4232177734375,66.16299438476562 L620.8555908203125,65.16987609863281 L621.9227294921875,63.82780838012695 L622.5045166015625,62.29584503173828 L622.570556640625,60.7739143371582 L622.1768798828125,59.44281005859375 L621.4520263671875,58.44463348388672 L620.6065673828125,57.856842041015625 L619.8373413085938,57.66976547241211 L619.307861328125,57.7217903137207 L619.03955078125,57.852577209472656 M626.4488525390625,58.44478225708008 L626.370361328125,58.59945297241211 L626.22705078125,59.03215408325195 L626.0301513671875,59.84657287597656 L625.8343505859375,61.04338836669922 L625.7259521484375,62.51901626586914 L625.7832641601562,64.11040496826172 L626.06494140625,65.63713073730469 L626.620849609375,66.92625427246094 L627.438720703125,67.81804656982422 L628.466796875,68.18328094482422 L629.6322021484375,67.93486022949219 L630.823486328125,67.06986999511719 L631.92138671875,65.6891860961914 L632.8251953125,63.986572265625 L633.46630859375,62.20408630371094 L633.8138427734375,60.577308654785156 L633.910888671875,59.26799011230469 L633.8187255859375,58.379859924316406 L633.615234375,57.98335647583008 L633.3519287109375,58.12676239013672 L633.1019287109375,58.83312225341797 L632.9258422851562,60.04941940307617 L632.941650390625,61.63218307495117 L633.226318359375,63.369754791259766 L633.8243408203125,65.03966522216797 L634.7005615234375,66.44682312011719 L635.8004150390625,67.46501159667969 L637.0460815429688,68.00369262695312 L638.3578491210938,68.02103424072266 L639.6273193359375,67.50687408447266 L640.7338256835938,66.51615142822266 L641.5433349609375,65.10873413085938 L641.9874877929688,63.44965744018555 L642.0948486328125,61.73603439331055 L642.009033203125,60.370731353759766 L641.88037109375,59.53580093383789 M645.134033203125,60.78706359863281 L645.2702026367188,61.05522918701172 L645.4306640625,61.59202575683594 L645.5445556640625,62.40534591674805 L645.542236328125,63.40974044799805 L645.459716796875,64.5072250366211 L645.3641357421875,65.57572937011719 L645.2990112304688,66.50350952148438 L645.285888671875,67.19730377197266 L645.3125610351562,67.56388854980469 L645.3770751953125,67.54257202148438 L645.5020751953125,67.0979995727539 L645.72998046875,66.23815155029297 L646.0870361328125,65.04174041748047 L646.6010131835938,63.635284423828125 L647.277587890625,62.156471252441406 L648.1248779296875,60.74668884277344 L649.128662109375,59.52269744873047 L650.2530517578125,58.575347900390625 L651.4375,57.98088073730469 L652.5941162109375,57.7855110168457 L653.6258544921875,58.00935745239258 L654.4564208984375,58.647377014160156 L655.0343627929688,59.662254333496094 L655.3564453125,60.981101989746094 L655.4542236328125,62.50310516357422 L655.382568359375,64.10115814208984 L655.2111206054688,65.64509582519531 L655.025634765625,66.98548126220703 L654.8997802734375,68.00109100341797 L654.8858032226562,68.62026977539062 L654.9439697265625,68.89653015136719 L655.0204467773438,68.95256042480469 " fill="none" stroke="black" stroke-linecap="round" stroke-width="2" /><path d="M0,0 M448.9494934082031,108.93026733398438 L448.92828369140625,108.81857299804688 L448.93780517578125,108.78175354003906 L449.00494384765625,108.9876480102539 L449.1529541015625,109.63842010498047 L449.35302734375,110.82151794433594 L449.5908508300781,112.53022003173828 L449.85357666015625,114.66201782226562 L450.15875244140625,117.08638763427734 L450.52752685546875,119.61750030517578 L450.9920654296875,122.0726547241211 L451.53515625,124.25067901611328 L452.12933349609375,125.98995971679688 L452.736572265625,127.17330169677734 L453.3057861328125,127.7293472290039 L453.8148498535156,127.62602233886719 L454.28070068359375,126.87261962890625 L454.71405029296875,125.50957489013672 L455.1294250488281,123.6869888305664 L455.5291442871094,121.59367370605469 L455.8989562988281,119.44903564453125 L456.22088623046875,117.48197174072266 L456.48394775390625,115.86441802978516 L456.6854553222656,114.72274017333984 L456.84442138671875,114.17452239990234 L456.97137451171875,114.2430648803711 L457.1044006347656,114.93521118164062 L457.2743225097656,116.21833038330078 L457.4980773925781,117.97615051269531 L457.79010009765625,120.0616226196289 L458.1822204589844,122.32775115966797 L458.67230224609375,124.57078552246094 L459.2563171386719,126.6032943725586 L459.9075927734375,128.25889587402344 L460.56884765625,129.39297485351562 L461.18817138671875,129.91259765625 L461.7642822265625,129.7941436767578 L462.30169677734375,129.0075225830078 L462.831787109375,127.55268096923828 L463.3692932128906,125.47831726074219 L463.9101257324219,122.89501953125 L464.4356689453125,119.96630096435547 L464.9236145019531,116.89860534667969 L465.328369140625,113.88487243652344 L465.6214294433594,111.11468505859375 L465.7681884765625,108.77063751220703 L465.785888671875,106.98754119873047 L465.7369689941406,105.87090301513672 L465.6806335449219,105.3386001586914 M472.99481201171875,119.7952651977539 L472.9110107421875,119.28966522216797 L472.692138671875,118.51143646240234 L472.2713623046875,117.65984344482422 L471.6215515136719,117.08169555664062 L470.7562561035156,116.97915649414062 L469.7567443847656,117.47274780273438 L468.72906494140625,118.550537109375 L467.807861328125,120.11453247070312 L467.1212463378906,121.99105834960938 L466.74627685546875,123.94227600097656 L466.72021484375,125.71830749511719 L467.027587890625,127.10031127929688 L467.6000671386719,127.92828369140625 L468.3687744140625,128.12576293945312 L469.2731018066406,127.68531799316406 L470.220458984375,126.65422821044922 L471.1429443359375,125.14710235595703 L471.97283935546875,123.33544921875 L472.6437683105469,121.45330047607422 L473.12890625,119.7459487915039 L473.4300537109375,118.39778137207031 L473.5569763183594,117.53971099853516 L473.5501403808594,117.24174499511719 L473.456787109375,117.52347564697266 L473.3143310546875,118.39752197265625 L473.158935546875,119.80857849121094 L473.0335693359375,121.61576843261719 L472.9852294921875,123.65007781982422 L473.0689392089844,125.71092224121094 L473.3236999511719,127.60307312011719 L473.75958251953125,129.18576049804688 L474.3736572265625,130.25074768066406 L475.12445068359375,130.6569061279297 L475.94427490234375,130.39370727539062 L476.6299743652344,129.8182373046875 L477.06951904296875,129.26849365234375 M478.93743896484375,107.09648132324219 L479.0069580078125,107.2151107788086 L479.1210021972656,107.67677307128906 L479.2524108886719,108.68133544921875 L479.34124755859375,110.30803680419922 L479.3672790527344,112.47687530517578 L479.343017578125,115.02583312988281 L479.3226623535156,117.7581558227539 L479.3638916015625,120.48907470703125 L479.4974670410156,123.0173110961914 L479.70306396484375,125.13925170898438 L479.90423583984375,126.59532165527344 L480.04248046875,127.36597442626953 M484.99102783203125,106.41883087158203 L484.9990539550781,106.75028228759766 L484.991455078125,107.51081085205078 L484.96099853515625,108.813232421875 L484.89801025390625,110.62203216552734 L484.81634521484375,112.85016632080078 L484.7204895019531,115.34574890136719 L484.6382141113281,117.93766784667969 L484.5846252441406,120.45055389404297 L484.596435546875,122.7132339477539 L484.7401123046875,124.58110809326172 L484.9410400390625,125.85453033447266 L485.1253662109375,126.53546905517578 M490.9940490722656,117.0221176147461 L490.8180847167969,116.78559112548828 L490.4064025878906,116.5679702758789 L489.7041320800781,116.5567626953125 L488.7437744140625,116.94435119628906 L487.62860107421875,117.72803497314453 L486.50921630859375,118.83894348144531 L485.550048828125,120.12896728515625 L484.9125671386719,121.45532989501953 L484.7081298828125,122.679443359375 L484.9809265136719,123.68749237060547 L485.6909484863281,124.41419982910156 L486.73468017578125,124.86060333251953 L487.956298828125,125.03968048095703 L489.2420654296875,124.99041748046875 L490.4870300292969,124.74470520019531 L491.62548828125,124.31584167480469 L492.6135559082031,123.71321105957031 L493.4305725097656,122.95740509033203 L494.0596618652344,122.06904602050781 L494.5335693359375,121.11363220214844 L494.87139892578125,120.17900085449219 L495.103515625,119.34809112548828 L495.2690734863281,118.6931381225586 L495.39251708984375,118.282958984375 L495.49066162109375,118.16275024414062 L495.57965087890625,118.38101196289062 L495.65325927734375,118.96805572509766 L495.7154235839844,119.89496612548828 L495.78277587890625,121.0745620727539 L495.86822509765625,122.38684844970703 L495.9839782714844,123.68302917480469 L496.14190673828125,124.83847045898438 L496.32025146484375,125.76101684570312 L496.5072021484375,126.37769317626953 L496.6590270996094,126.7018051147461 L496.7531433105469,126.8146743774414 M495.5334777832031,110.4560775756836 L495.57342529296875,110.47431945800781 L495.652099609375,110.56392669677734 L495.7400207519531,110.68762969970703 L495.8077697753906,110.80815887451172 M500.22821044921875,116.82037353515625 L500.30859375,117.07540893554688 L500.43780517578125,117.60668182373047 L500.5782470703125,118.4607162475586 L500.6775207519531,119.58676147460938 L500.70147705078125,120.92430114746094 L500.6565246582031,122.365478515625 L500.5845031738281,123.775146484375 L500.5496520996094,125.0059585571289 L500.5977783203125,125.91903686523438 L500.7721252441406,126.39899444580078 L501.08477783203125,126.3914566040039 L501.5536804199219,125.87337493896484 L502.1881103515625,124.88529968261719 L502.98907470703125,123.53894805908203 L503.92279052734375,121.98550415039062 L504.9339599609375,120.40493774414062 L505.9519348144531,118.96810913085938 L506.9332275390625,117.79885864257812 L507.83734130859375,116.98506927490234 L508.6345520019531,116.60233306884766 L509.2884826660156,116.68772888183594 L509.7475280761719,117.25654602050781 L509.9859619140625,118.27555847167969 L510.0374450683594,119.672119140625 L509.959716796875,121.26602172851562 L509.8362731933594,122.84807586669922 L509.7380676269531,124.06354522705078 L509.68377685546875,124.77284240722656 M518.4186401367188,119.2208023071289 L518.4290771484375,118.81558227539062 L518.329833984375,118.23489379882812 L518.0204467773438,117.63863372802734 L517.4308471679688,117.2765121459961 L516.5866088867188,117.2581787109375 L515.5795288085938,117.61897277832031 L514.559326171875,118.32870483398438 L513.6647338867188,119.32376861572266 L513.0289306640625,120.47735595703125 L512.7388916015625,121.64202880859375 L512.84228515625,122.67353820800781 L513.3287963867188,123.4277114868164 L514.156982421875,123.81920623779297 L515.2254638671875,123.79839324951172 L516.4069213867188,123.371826171875 L517.5457763671875,122.60961151123047 L518.5185546875,121.63582611083984 L519.226806640625,120.58936309814453 L519.64892578125,119.61666107177734 L519.8079223632812,118.81710052490234 L519.7606201171875,118.25896453857422 L519.5811157226562,117.97975158691406 L519.3566284179688,118.02881622314453 L519.159423828125,118.45240020751953 L519.0592651367188,119.27743530273438 L519.1103515625,120.48136138916016 L519.3284301757812,121.99088287353516 L519.7163696289062,123.71027374267578 L520.2386474609375,125.55934143066406 L520.828857421875,127.48185729980469 L521.3843994140625,129.42828369140625 L521.80712890625,131.3494110107422 L521.9903564453125,133.175537109375 L521.87109375,134.84088134765625 L521.4146118164062,136.27328491210938 L520.6327514648438,137.40992736816406 L519.57373046875,138.19508361816406 L518.3289794921875,138.60052490234375 L516.99609375,138.62893676757812 L515.689697265625,138.25381469726562 L514.5301513671875,137.51150512695312 L513.6195678710938,136.4994659423828 L513.0396728515625,135.5570526123047 L512.76416015625,134.908447265625 M537.1333618164062,122.14974212646484 L537.332275390625,121.65321350097656 L537.7237548828125,120.7287826538086 L538.2825317382812,119.3690185546875 L538.9013671875,117.69200134277344 L539.4784545898438,115.75879669189453 L539.9149780273438,113.65818786621094 L540.1633911132812,111.49591064453125 L540.236328125,109.42986297607422 L540.1514282226562,107.61634826660156 L539.9479370117188,106.19273376464844 L539.6754150390625,105.28950500488281 L539.3447875976562,105.0 L538.9625244140625,105.39720153808594 L538.54150390625,106.53333282470703 L538.09228515625,108.38407897949219 L537.6602783203125,110.85993194580078 L537.3165893554688,113.83627319335938 L537.0903930664062,117.15176391601562 L537.0029296875,120.63259887695312 L537.057861328125,124.12360382080078 L537.2254028320312,127.38249206542969 L537.473876953125,130.17193603515625 L537.7142944335938,132.12452697753906 L537.8781127929688,133.18275451660156 M534.3110961914062,122.08914184570312 L534.5431518554688,121.86753845214844 L535.0918579101562,121.50411987304688 L536.0238647460938,121.04867553710938 L537.356201171875,120.58368682861328 L538.9848022460938,120.13369750976562 L540.753662109375,119.71748352050781 L542.220947265625,119.3950424194336 L543.1555786132812,119.19566345214844 M549.4913940429688,116.82894897460938 L549.278564453125,116.74140930175781 L548.8506469726562,116.67424774169922 L548.1776123046875,116.74668884277344 L547.2960205078125,117.10211944580078 L546.2716064453125,117.81916046142578 L545.2254638671875,118.89444732666016 L544.2914428710938,120.23174285888672 L543.6289672851562,121.67213439941406 L543.3466186523438,123.03287506103516 L543.470947265625,124.1395492553711 L543.9898681640625,124.8602066040039 L544.828369140625,125.0990982055664 L545.872314453125,124.8235092163086 L547.0020141601562,124.05107879638672 L548.0889892578125,122.87159729003906 L549.0186767578125,121.44728088378906 L549.73046875,119.9911117553711 L550.2090454101562,118.7076644897461 L550.4803466796875,117.73686981201172 L550.5944213867188,117.14395904541016 L550.5928955078125,116.9435806274414 L550.50927734375,117.13603973388672 L550.3781127929688,117.74893951416016 L550.2540283203125,118.78919219970703 L550.194580078125,120.15593719482422 L550.2723999023438,121.69207763671875 L550.5254516601562,123.19226837158203 L551.0259399414062,124.40550231933594 L551.798583984375,125.1754150390625 L552.8104248046875,125.44829559326172 L553.7474365234375,125.38526153564453 L554.404052734375,125.20198059082031 M559.7222900390625,115.0125732421875 L559.3440551757812,114.75103759765625 L558.6605834960938,114.49827575683594 L557.70751953125,114.42789459228516 L556.6568603515625,114.72462463378906 L555.6630859375,115.3730697631836 L554.91259765625,116.28233337402344 L554.5560913085938,117.32757568359375 L554.70458984375,118.41316986083984 L555.3756713867188,119.43746185302734 L556.506103515625,120.34491729736328 L557.956298828125,121.1133041381836 L559.5401000976562,121.75157165527344 L561.0537109375,122.3021469116211 L562.29296875,122.79834747314453 L563.0878295898438,123.24700927734375 L563.3323974609375,123.6535415649414 L562.9957885742188,124.01583862304688 L562.1262817382812,124.33280181884766 L560.8397827148438,124.60549926757812 L559.2888793945312,124.82548522949219 L557.6646728515625,124.96582794189453 L556.1373291015625,125.01256561279297 L554.9159545898438,124.90303039550781 L554.143310546875,124.59085083007812 L553.8699340820312,124.06322479248047 L553.9227905273438,123.51750946044922 L554.1023559570312,123.10270690917969 M566.6544189453125,106.10791015625 L566.7596435546875,106.26309204101562 L566.918701171875,106.71846008300781 L567.09130859375,107.60295867919922 L567.2320556640625,108.9542007446289 L567.3396606445312,110.71602630615234 L567.4158325195312,112.79112243652344 L567.4793701171875,115.06919860839844 L567.5540771484375,117.4284439086914 L567.649169921875,119.73057556152344 L567.7826538085938,121.81449890136719 L567.955078125,123.54174041748047 L568.1505737304688,124.75318145751953 L568.3433837890625,125.36600494384766 L568.5074462890625,125.39290618896484 L568.616943359375,125.109375 L568.6716918945312,124.77699279785156 " fill="none" stroke="black" stroke-linecap="round" stroke-width="2" /><path d="M0,0 M457.70318603515625,170.07908630371094 L457.7525939941406,170.70077514648438 L457.8222351074219,171.86097717285156 L457.9075927734375,173.5662078857422 L458.0095520019531,175.66299438476562 L458.1354675292969,178.08091735839844 L458.2863464355469,180.71778869628906 L458.453857421875,183.47158813476562 L458.6220397949219,186.1936798095703 L458.804931640625,188.7278289794922 L459.0463562011719,190.92816162109375 L459.3604431152344,192.68492126464844 L459.7384948730469,193.80621337890625 L460.13018798828125,194.17953491210938 L460.4814453125,193.8053436279297 L460.72735595703125,193.10073852539062 L460.8630676269531,192.44961547851562 M451.837646484375,167.73153686523438 L451.84112548828125,167.7351531982422 L452.053466796875,167.71144104003906 L452.6539611816406,167.62156677246094 L453.787109375,167.42291259765625 L455.4798889160156,167.1144256591797 L457.6628723144531,166.72463989257812 L460.1871337890625,166.29957580566406 L462.8966369628906,165.8957061767578 L465.5416564941406,165.5513916015625 L467.8720703125,165.27529907226562 L469.53369140625,165.09410095214844 L470.44635009765625,165.0 M454.88818359375,182.22015380859375 L455.3260803222656,182.29397583007812 L456.19244384765625,182.31639099121094 L457.4866943359375,182.2139892578125 L459.11767578125,181.92105102539062 L460.9595031738281,181.4831085205078 L462.8642883300781,181.0040283203125 L464.4075622558594,180.62437438964844 L465.3818664550781,180.39788818359375 M473.0831298828125,181.46426391601562 L472.987060546875,181.17715454101562 L472.7194519042969,180.77883911132812 L472.1957702636719,180.4268798828125 L471.3675842285156,180.374267578125 L470.2682800292969,180.78497314453125 L469.00933837890625,181.7416534423828 L467.76409912109375,183.20819091796875 L466.7357177734375,185.05722045898438 L466.1004638671875,187.0660858154297 L465.9530029296875,188.97467041015625 L466.32635498046875,190.54092407226562 L467.1700134277344,191.5675811767578 L468.3750305175781,191.9244842529297 L469.81549072265625,191.56460571289062 L471.33148193359375,190.51779174804688 L472.7665100097656,188.89544677734375 L473.984375,186.8784637451172 L474.886962890625,184.70736694335938 L475.4318542480469,182.64395141601562 L475.6711730957031,180.91387939453125 L475.6786193847656,179.6781463623047 L475.55322265625,179.0171356201172 L475.37664794921875,178.94180297851562 L475.2130126953125,179.44955444335938 L475.0995788574219,180.52255249023438 L475.09210205078125,182.07266235351562 L475.2218322753906,183.94552612304688 L475.5396728515625,185.93942260742188 L476.05908203125,187.8148651123047 L476.75341796875,189.38385009765625 L477.39776611328125,190.4539337158203 L477.84759521484375,191.01654052734375 M485.51800537109375,180.0843963623047 L485.2620544433594,179.8970184326172 L484.7774963378906,179.72308349609375 L484.0483703613281,179.72630310058594 L483.1423645019531,180.08570861816406 L482.1369323730469,180.85902404785156 L481.14208984375,182.01132202148438 L480.2886047363281,183.4429168701172 L479.7335510253906,185.03103637695312 L479.5833740234375,186.6203155517578 L479.8988037109375,188.0507049560547 L480.6777648925781,189.20947265625 L481.8869323730469,189.95130920410156 L483.4004821777344,190.2136688232422 L485.052490234375,190.01788330078125 L486.41815185546875,189.6195068359375 L487.28070068359375,189.24835205078125 M489.1424560546875,184.63619995117188 L489.30810546875,184.71087646484375 L489.6622009277344,184.73638916015625 L490.23980712890625,184.61236572265625 L491.01611328125,184.2345733642578 L491.9298095703125,183.59542846679688 L492.8697509765625,182.71728515625 L493.7189636230469,181.68263244628906 L494.3684387207031,180.58885192871094 L494.7271728515625,179.5505828857422 L494.7612609863281,178.68978881835938 L494.46978759765625,178.13392639160156 L493.88067626953125,177.98239135742188 L493.0652770996094,178.32107543945312 L492.1330261230469,179.1746826171875 L491.21551513671875,180.4828643798828 L490.4819030761719,182.1235809326172 L490.0894775390625,183.92738342285156 L490.1252136230469,185.7268524169922 L490.58935546875,187.38619995117188 L491.5010070800781,188.7638397216797 L492.7969055175781,189.7422637939453 L494.36920166015625,190.27357482910156 L495.77056884765625,190.450927734375 L496.7196960449219,190.43246459960938 M504.121337890625,178.28265380859375 L503.8125305175781,178.00071716308594 L503.1986083984375,177.68038940429688 L502.26885986328125,177.4886016845703 L501.13818359375,177.61729431152344 L499.96917724609375,178.0834197998047 L498.96307373046875,178.82662963867188 L498.3066101074219,179.7369842529297 L498.1622314453125,180.7323455810547 L498.6127014160156,181.71856689453125 L499.6499938964844,182.62220764160156 L501.20001220703125,183.40797424316406 L503.0787658691406,184.07666015625 L505.0328063964844,184.66856384277344 L506.79241943359375,185.22219848632812 L508.11785888671875,185.76661682128906 L508.8397216796875,186.30943298339844 L508.9075012207031,186.85488891601562 L508.34197998046875,187.401611328125 L507.22760009765625,187.94882202148438 L505.706298828125,188.45298767089844 L504.0135498046875,188.8808135986328 L502.39862060546875,189.19583129882812 L501.20355224609375,189.38230895996094 L500.53729248046875,189.46327209472656 M519.66552734375,178.26235961914062 L519.673828125,178.4239501953125 L519.6826782226562,178.86697387695312 L519.676513671875,179.7270050048828 L519.6422119140625,181.0804901123047 L519.573974609375,182.93101501464844 L519.4649658203125,185.19998168945312 L519.3395385742188,187.7605438232422 L519.2197875976562,190.4231414794922 L519.1258544921875,192.94805908203125 L519.07666015625,195.11309814453125 L519.086669921875,196.730712890625 L519.1285400390625,197.66819763183594 L519.1849975585938,197.87710571289062 L519.221435546875,197.37255859375 L519.203125,196.1927490234375 L519.1150512695312,194.45306396484375 L518.9889526367188,192.30104064941406 L518.8621215820312,189.88299560546875 L518.8076171875,187.3363037109375 L518.9111328125,184.796142578125 L519.2304077148438,182.37440490722656 L519.8072509765625,180.19485473632812 L520.66015625,178.36895751953125 L521.7864379882812,176.99937438964844 L523.1470336914062,176.1627960205078 L524.6691284179688,175.91165161132812 L526.2134399414062,176.2493438720703 L527.6131591796875,177.11239624023438 L528.6956176757812,178.3711395263672 L529.3560791015625,179.8647003173828 L529.5537109375,181.43896484375 L529.2958374023438,182.94476318359375 L528.6152954101562,184.27099609375 L527.573974609375,185.3291015625 L526.2660522460938,186.0670166015625 L524.8734130859375,186.44479370117188 L523.6294555664062,186.5013885498047 L522.7264404296875,186.30581665039062 L522.2271118164062,186.03732299804688 L522.0502319335938,185.82342529296875 M538.2799072265625,179.5011444091797 L538.1998291015625,179.0575714111328 L537.966552734375,178.4062042236328 L537.511474609375,177.71058654785156 L536.8099975585938,177.24171447753906 L535.8845825195312,177.12646484375 L534.8128662109375,177.46095275878906 L533.7070922851562,178.24717712402344 L532.7097778320312,179.43873596191406 L531.9596557617188,180.89471435546875 L531.566162109375,182.42535400390625 L531.5823364257812,183.83006286621094 L532.0087280273438,184.9449920654297 L532.804931640625,185.63955688476562 L533.892578125,185.83323669433594 L535.162109375,185.4951934814453 L536.4838256835938,184.65267944335938 L537.7277221679688,183.4056396484375 L538.7720336914062,181.9140625 L539.5552978515625,180.39004516601562 L540.0505981445312,179.0331573486328 L540.2817993164062,177.9996795654297 L540.3162841796875,177.37521362304688 L540.2356567382812,177.21649169921875 L540.1016235351562,177.53585815429688 L539.981201171875,178.34390258789062 L539.9232177734375,179.5693359375 L539.9432983398438,181.06471252441406 L540.1199340820312,182.63754272460938 L540.4921875,184.09124755859375 L541.05419921875,185.26791381835938 L541.6130981445312,186.04705810546875 L542.0272827148438,186.44410705566406 M550.0320434570312,175.422119140625 L549.6898193359375,175.11875915527344 L549.0331420898438,174.8067626953125 L548.0721435546875,174.6819305419922 L546.9600219726562,174.9408721923828 L545.868408203125,175.5541534423828 L545.0029907226562,176.40985107421875 L544.5430297851562,177.35415649414062 L544.6331787109375,178.29244995117188 L545.3201904296875,179.15676879882812 L546.5630493164062,179.9239044189453 L548.212158203125,180.6083221435547 L550.0590209960938,181.2470245361328 L551.8593139648438,181.87315368652344 L553.387451171875,182.50714111328125 L554.4591674804688,183.142822265625 L554.9889526367188,183.7705535888672 L554.938720703125,184.37890625 L554.3630981445312,184.95782470703125 L553.3502197265625,185.48138427734375 L552.0244750976562,185.91473388671875 L550.5203247070312,186.23133850097656 L549.0081176757812,186.42626953125 L547.6053466796875,186.51731872558594 L546.4948120117188,186.486572265625 L545.8019409179688,186.31369018554688 L545.59130859375,185.98580932617188 L545.6897583007812,185.63206481933594 L545.9030151367188,185.357421875 M561.1170043945312,175.06956481933594 L560.9912109375,174.61502075195312 L560.6292724609375,174.00247192382812 L559.9291381835938,173.43516540527344 L558.887451171875,173.1990966796875 L557.6068115234375,173.3588104248047 L556.2891845703125,173.90492248535156 L555.18212890625,174.73788452148438 L554.5084228515625,175.7705841064453 L554.4322509765625,176.89598083496094 L555.033935546875,178.02615356445312 L556.2781982421875,179.09812927246094 L558.01904296875,180.0755157470703 L560.0260620117188,180.9482879638672 L562.004638671875,181.718994140625 L563.6688232421875,182.3911895751953 L564.801513671875,182.96853637695312 L565.279296875,183.4646759033203 L565.0502319335938,183.8814239501953 L564.166748046875,184.23162841796875 L562.7423095703125,184.51422119140625 L560.9466552734375,184.73670959472656 L559.0052490234375,184.90911865234375 L557.131591796875,185.0559539794922 L555.4791259765625,185.1865997314453 L554.1607666015625,185.29859924316406 L553.217041015625,185.37066650390625 L552.6519775390625,185.40234375 L552.3965454101562,185.40231323242188 " fill="none" stroke="black" stroke-linecap="round" stroke-width="2" /><path d="M0,0 M401.80841064453125,244.4650115966797 L401.92462158203125,243.7632293701172 L402.1347351074219,242.49484252929688 L402.4345703125,240.7074737548828 L402.80511474609375,238.6168212890625 L403.2339782714844,236.31227111816406 L403.72784423828125,233.898193359375 L404.27001953125,231.4777374267578 L404.7806396484375,229.20977783203125 L405.1832275390625,227.2854766845703 L405.4456481933594,225.86871337890625 L405.562255859375,225.08436584472656 L405.6072082519531,225.0 L405.65679931640625,225.6453094482422 L405.7452697753906,227.0041046142578 L405.89642333984375,229.00738525390625 L406.1176452636719,231.52467346191406 L406.37261962890625,234.38949584960938 L406.6533203125,237.40359497070312 L406.9463806152344,240.3661346435547 L407.23846435546875,243.07179260253906 L407.52349853515625,245.31605529785156 L407.7858581542969,246.9615478515625 L407.974853515625,247.9457244873047 L408.08160400390625,248.38504028320312 M400.5729675292969,238.72862243652344 L400.7652282714844,238.80934143066406 L401.2440185546875,238.9072265625 L402.0788269042969,238.96725463867188 L403.3000183105469,238.89016723632812 L404.81451416015625,238.64439392089844 L406.47845458984375,238.24655151367188 L407.863037109375,237.84982299804688 L408.74993896484375,237.56626892089844 M412.36578369140625,236.99378967285156 L412.32501220703125,237.52297973632812 L412.2546691894531,238.47425842285156 L412.1667175292969,239.81219482421875 L412.07501220703125,241.34942626953125 L411.99578857421875,242.959716796875 L411.93499755859375,244.47169494628906 L411.8934020996094,245.76150512695312 L411.8761291503906,246.69488525390625 L411.89031982421875,247.1808319091797 L411.934326171875,247.16876220703125 L412.0255432128906,246.63511657714844 L412.1665954589844,245.57598876953125 L412.3791198730469,244.1064910888672 L412.6995849609375,242.39125061035156 L413.1671142578125,240.62026977539062 L413.8111877441406,238.97265625 L414.639404296875,237.58010864257812 L415.6060791015625,236.519775390625 L416.64501953125,235.86911010742188 L417.6873779296875,235.69017028808594 L418.66070556640625,236.00994873046875 L419.50311279296875,236.82479858398438 L420.1727294921875,238.08184814453125 L420.6402587890625,239.6707305908203 L420.90826416015625,241.4358367919922 L421.0097351074219,243.2043914794922 L421.0218200683594,244.77841186523438 L421.0259704589844,246.00021362304688 L421.09619140625,246.78509521484375 L421.20654296875,247.17063903808594 L421.31475830078125,247.2853546142578 M431.08721923828125,239.0465850830078 L430.9814758300781,238.54432678222656 L430.6925964355469,237.8472900390625 L430.14776611328125,237.15557861328125 L429.3276672363281,236.75787353515625 L428.27288818359375,236.75668334960938 L427.0885009765625,237.21446228027344 L425.9027404785156,238.11514282226562 L424.86065673828125,239.44232177734375 L424.10040283203125,241.09613037109375 L423.7155456542969,242.89935302734375 L423.7582702636719,244.66439819335938 L424.2322998046875,246.20095825195312 L425.07855224609375,247.32855224609375 L426.2147216796875,247.9151611328125 L427.5450134277344,247.87916564941406 L428.965087890625,247.1839141845703 L430.3779602050781,245.8753204345703 L431.68621826171875,244.04136657714844 L432.8078308105469,241.79554748535156 L433.7015380859375,239.28036499023438 L434.3677062988281,236.66891479492188 L434.83367919921875,234.1371307373047 L435.1432189941406,231.8980255126953 L435.3365173339844,230.0947723388672 L435.46612548828125,228.82012939453125 L435.5758972167969,228.11953735351562 L435.6858215332031,228.01112365722656 L435.7773742675781,228.48851013183594 L435.824951171875,229.57620239257812 L435.7962951660156,231.19729614257812 L435.71466064453125,233.24969482421875 L435.6233215332031,235.58120727539062 L435.5793151855469,238.03216552734375 L435.61932373046875,240.4388885498047 L435.76092529296875,242.6753387451172 L435.9867858886719,244.60342407226562 L436.27392578125,246.12725830078125 L436.57952880859375,247.1942901611328 L436.8281555175781,247.81137084960938 L436.9812316894531,248.0775909423828 M451.9652404785156,226.75628662109375 L451.96588134765625,226.99571228027344 L451.9532470703125,227.55027770996094 L451.90386962890625,228.5204620361328 L451.7894287109375,229.9305877685547 L451.590576171875,231.78118896484375 L451.3345947265625,234.02801513671875 L451.04901123046875,236.5581817626953 L450.7793884277344,239.2321319580078 L450.5700988769531,241.82937622070312 L450.43939208984375,244.12100219726562 L450.37750244140625,245.76055908203125 L450.36761474609375,246.6723175048828 M458.99017333984375,225.2883758544922 L459.0311279296875,225.58409118652344 L459.0448303222656,226.2154083251953 L458.9852294921875,227.21043395996094 L458.8273010253906,228.50958251953125 L458.61102294921875,229.98941040039062 L458.39862060546875,231.4875946044922 L458.248046875,232.67161560058594 L458.17315673828125,233.39747619628906 M462.8487243652344,237.83612060546875 L462.78790283203125,238.41554260253906 L462.6775817871094,239.50489807128906 L462.5218505859375,241.07467651367188 L462.3564453125,242.89315795898438 L462.2154541015625,244.7483673095703 L462.1296691894531,246.40345764160156 L462.11712646484375,247.71286010742188 L462.1530456542969,248.57260131835938 L462.20159912109375,248.91506958007812 L462.23883056640625,248.69349670410156 L462.2842102050781,247.8700408935547 L462.37835693359375,246.456787109375 L462.5972900390625,244.617431640625 L463.0000915527344,242.57508850097656 L463.64056396484375,240.5699920654297 L464.5225830078125,238.81211853027344 L465.61956787109375,237.4585418701172 L466.8284912109375,236.62266540527344 L468.0321350097656,236.393798828125 L469.10498046875,236.7874298095703 L469.95343017578125,237.749267578125 L470.5091857910156,239.1505126953125 L470.7384033203125,240.79937744140625 L470.6559753417969,242.4678497314453 L470.35076904296875,243.92974853515625 L469.951416015625,245.0222625732422 L469.60162353515625,245.65586853027344 L469.38897705078125,245.785400390625 L469.3330383300781,245.38771057128906 L469.4427185058594,244.46200561523438 L469.744140625,243.07861328125 L470.28472900390625,241.41458129882812 L471.09979248046875,239.69847106933594 L472.15277099609375,238.1344451904297 L473.36572265625,236.8738250732422 L474.63531494140625,235.99742126464844 L475.8775634765625,235.55726623535156 L477.04742431640625,235.592529296875 L478.09466552734375,236.11399841308594 L478.96600341796875,237.09291076660156 L479.6058654785156,238.45623779296875 L479.9731140136719,240.09896850585938 L480.0713195800781,241.89804077148438 L479.970703125,243.7227020263672 L479.7725524902344,245.41915893554688 L479.5958557128906,246.85350036621094 L479.491455078125,247.84022521972656 L479.4607238769531,248.3647003173828 M491.4414978027344,229.087646484375 L491.4696044921875,229.33200073242188 L491.50897216796875,229.90525817871094 L491.5492248535156,230.90322875976562 L491.5699768066406,232.32164001464844 L491.56524658203125,234.1080780029297 L491.5294189453125,236.1568603515625 L491.4645690917969,238.3470001220703 L491.3658447265625,240.52386474609375 L491.2460021972656,242.51870727539062 L491.1158447265625,244.17770385742188 L490.9969482421875,245.38803100585938 L490.9151611328125,246.07594299316406 L490.89996337890625,246.21929931640625 L490.96820068359375,245.8102569580078 L491.1531677246094,244.8758544921875 L491.48516845703125,243.51443481445312 L491.9920654296875,241.8787078857422 L492.69378662109375,240.14871215820312 L493.5967712402344,238.5171661376953 L494.6639404296875,237.12863159179688 L495.8393249511719,236.09959411621094 L497.050048828125,235.5103759765625 L498.21270751953125,235.3927459716797 L499.263916015625,235.74237060546875 L500.15625,236.532958984375 L500.8366394042969,237.69448852539062 L501.275146484375,239.12838745117188 L501.485107421875,240.7113800048828 L501.5124816894531,242.30499267578125 L501.4471435546875,243.7782745361328 L501.3603515625,245.04005432128906 L501.31207275390625,245.98464965820312 L501.33489990234375,246.5316925048828 L501.461181640625,246.67774963378906 L501.6226806640625,246.5807647705078 L501.7670593261719,246.407958984375 M510.2587585449219,238.92401123046875 L510.126953125,238.505859375 L509.8394775390625,237.92535400390625 L509.3485107421875,237.3554229736328 L508.6413269042969,237.0456085205078 L507.7352294921875,237.08517456054688 L506.689697265625,237.52932739257812 L505.6049499511719,238.37710571289062 L504.61993408203125,239.60134887695312 L503.8775329589844,241.10733032226562 L503.4877624511719,242.7337646484375 L503.53277587890625,244.2934112548828 L504.0290832519531,245.60826110839844 L504.93243408203125,246.52960205078125 L506.14996337890625,246.961181640625 L507.5670471191406,246.8605499267578 L509.049072265625,246.23451232910156 L510.4720153808594,245.1390838623047 L511.7101745605469,243.6885986328125 L512.6438598632812,242.0334014892578 L513.16162109375,240.3514862060547 L513.2415161132812,238.8327178955078 L512.95068359375,237.61849975585938 L512.5419921875,236.82777404785156 L512.2139892578125,236.4364776611328 M516.9336547851562,234.65216064453125 L516.9528198242188,234.8628387451172 L516.9703369140625,235.34266662597656 L516.9652099609375,236.17315673828125 L516.9150390625,237.35324096679688 L516.8204345703125,238.84397888183594 L516.6956176757812,240.5546417236328 L516.5655517578125,242.32151794433594 L516.4658203125,243.9479522705078 L516.4144287109375,245.2519073486328 L516.4078979492188,246.0802001953125 L516.436767578125,246.34300231933594 L516.508056640625,246.0225830078125 L516.6512451171875,245.12608337402344 L516.9214477539062,243.7421417236328 L517.3612670898438,242.03001403808594 L517.9932250976562,240.1891632080078 L518.8056640625,238.4149169921875 L519.7664794921875,236.88784790039062 L520.8153076171875,235.72547912597656 L521.8785400390625,235.02716064453125 L522.8641357421875,234.85015869140625 L523.7113037109375,235.22349548339844 L524.3707885742188,236.10733032226562 L524.8279418945312,237.40943908691406 L525.0730590820312,238.9772186279297 L525.1158447265625,240.6164093017578 L524.9775390625,242.1108856201172 L524.7184448242188,243.30393981933594 L524.4019165039062,244.06068420410156 L524.1253662109375,244.3193817138672 L523.965576171875,244.05772399902344 L523.9866943359375,243.271728515625 L524.2416381835938,242.00587463378906 L524.7598876953125,240.40255737304688 L525.5234985351562,238.63909912109375 L526.4967041015625,236.94764709472656 L527.5831298828125,235.51507568359375 L528.6646728515625,234.47056579589844 L529.6485595703125,233.88619995117188 L530.4657592773438,233.79861450195312 L531.0894775390625,234.20947265625 L531.5249633789062,235.09243774414062 L531.7745361328125,236.3634796142578 L531.8500366210938,237.90394592285156 L531.7931518554688,239.5625762939453 L531.6668701171875,241.18585205078125 L531.5545043945312,242.6522216796875 L531.5499877929688,243.822021484375 L531.69384765625,244.59034729003906 L531.9730224609375,244.91346740722656 L532.265869140625,244.92576599121094 L532.48046875,244.80126953125 M534.83154296875,242.53697204589844 L535.1965942382812,242.55145263671875 L535.8837280273438,242.46580505371094 L536.8687744140625,242.18092346191406 L538.0007934570312,241.6076202392578 L539.169921875,240.74290466308594 L540.2432250976562,239.62557983398438 L541.1356201171875,238.3538360595703 L541.7738037109375,237.03659057617188 L542.1054077148438,235.7982635498047 L542.0856323242188,234.75296020507812 L541.7050170898438,234.0124053955078 L540.9788818359375,233.6746368408203 L539.983642578125,233.81787109375 L538.8401489257812,234.4693603515625 L537.7166137695312,235.5839080810547 L536.7733154296875,237.06057739257812 L536.1502075195312,238.74961853027344 L535.9537353515625,240.48890686035156 L536.2374267578125,242.12197875976562 L537.0702514648438,243.49630737304688 L538.4069213867188,244.4834442138672 L540.094970703125,245.04254150390625 L541.6076049804688,245.25735473632812 L542.62158203125,245.27297973632812 M546.757568359375,239.0517578125 L546.8743896484375,239.033935546875 L547.187255859375,238.97894287109375 L547.7722778320312,238.88235473632812 L548.7138671875,238.73690795898438 L549.9969482421875,238.55384826660156 L551.5086669921875,238.34140014648438 L552.82373046875,238.15557861328125 L553.6920776367188,238.02764892578125 M560.4717407226562,226.8390350341797 L560.5540161132812,227.11663818359375 L560.661865234375,227.7259063720703 L560.7421875,228.74525451660156 L560.7275390625,230.1588897705078 L560.6051025390625,231.92868041992188 L560.3781127929688,233.97073364257812 L560.0895385742188,236.17724609375 L559.7754516601562,238.40866088867188 L559.4732666015625,240.4833221435547 L559.216064453125,242.2348175048828 L559.0310668945312,243.53262329101562 L558.9122924804688,244.30996704101562 L558.8591918945312,244.55628967285156 L558.85888671875,244.28074645996094 L558.9241333007812,243.4822235107422 L559.0906982421875,242.22950744628906 L559.4043579101562,240.64735412597656 L559.898681640625,238.91021728515625 L560.594970703125,237.21119689941406 L561.4926147460938,235.7146759033203 L562.56494140625,234.5298309326172 L563.75830078125,233.7578125 L564.99853515625,233.47308349609375 L566.1949462890625,233.70220947265625 L567.2548217773438,234.43685913085938 L568.0982666015625,235.61135864257812 L568.6553955078125,237.10499572753906 L568.8599853515625,238.771240234375 L568.68408203125,240.4571075439453 L568.1248168945312,241.99951171875 L567.2342529296875,243.28720092773438 L566.078125,244.22723388671875 L564.754150390625,244.7709503173828 L563.3687744140625,244.92491149902344 L562.037841796875,244.74459838867188 L560.9220581054688,244.25375366210938 L560.1845703125,243.53550720214844 L559.89013671875,242.6647491455078 L559.9091186523438,241.89466857910156 L560.0614624023438,241.37985229492188 M575.301513671875,238.70254516601562 L575.2320556640625,238.3190155029297 L575.0401611328125,237.69131469726562 L574.6744995117188,236.9336700439453 L574.109619140625,236.26890563964844 L573.3533325195312,235.840087890625 L572.4508666992188,235.75221252441406 L571.4691162109375,236.0598907470703 L570.5048828125,236.77694702148438 L569.6807861328125,237.87701416015625 L569.107666015625,239.2705841064453 L568.8763427734375,240.81460571289062 L569.0311279296875,242.32550048828125 L569.5667114257812,243.6133270263672 L570.41650390625,244.5193634033203 L571.4992065429688,244.9508819580078 L572.7158203125,244.880126953125 L573.9639892578125,244.33274841308594 L575.12939453125,243.37796020507812 L576.0992431640625,242.1171875 L576.75244140625,240.6847381591797 L577.04443359375,239.2638397216797 L577.0049438476562,238.0013427734375 L576.81005859375,237.10166931152344 L576.61572265625,236.60691833496094 M580.5263671875,235.8943328857422 L580.4767456054688,235.65814208984375 L580.39599609375,235.40451049804688 L580.2771606445312,235.2959747314453 L580.1400146484375,235.53836059570312 L579.9810791015625,236.18902587890625 L579.8289184570312,237.24041748046875 L579.7073364257812,238.60743713378906 L579.6610107421875,240.1582489013672 L579.7333374023438,241.70724487304688 L579.986572265625,243.06520080566406 L580.44677734375,244.0670623779297 L581.1233520507812,244.60000610351562 L582.0022583007812,244.6140594482422 L583.0455322265625,244.1029510498047 L584.19482421875,243.1224365234375 L585.3678588867188,241.78030395507812 L586.4498901367188,240.23849487304688 L587.3504638671875,238.6903839111328 L588.0233154296875,237.32266235351562 L588.4610595703125,236.25535583496094 L588.7015380859375,235.546875 L588.80078125,235.2052764892578 L588.80029296875,235.2311553955078 L588.7364501953125,235.6420440673828 L588.6188354492188,236.46871948242188 L588.447265625,237.6771240234375 L588.244873046875,239.16563415527344 L588.0715942382812,240.78309631347656 L587.9879150390625,242.3341522216797 L588.0338134765625,243.64508056640625 L588.148681640625,244.54525756835938 L588.2620239257812,245.0176239013672 M593.5991821289062,235.64889526367188 L593.6477661132812,235.63632202148438 L593.7077026367188,235.78964233398438 L593.7393188476562,236.25115966796875 L593.6963500976562,237.1189727783203 L593.5647583007812,238.34031677246094 L593.364990234375,239.78582763671875 L593.14013671875,241.2601318359375 L592.9370727539062,242.59579467773438 L592.781494140625,243.65016174316406 L592.6884765625,244.32530212402344 L592.6641845703125,244.5440673828125 L592.7291259765625,244.27610778808594 L592.91015625,243.51193237304688 L593.2274780273438,242.31887817382812 L593.7010498046875,240.840576171875 L594.3472900390625,239.26123046875 L595.177734375,237.76084899902344 L596.1776733398438,236.4947052001953 L597.2838134765625,235.55276489257812 L598.4110717773438,235.00401306152344 L599.4515991210938,234.8911590576172 L600.3099365234375,235.2286376953125 L600.92919921875,235.9969940185547 L601.2782592773438,237.14244079589844 L601.3494873046875,238.56732177734375 L601.197509765625,240.16622924804688 L600.8748168945312,241.79129028320312 L600.507080078125,243.28038024902344 L600.22802734375,244.48191833496094 L600.14501953125,245.30303955078125 L600.2074584960938,245.74237060546875 L600.333984375,245.90728759765625 M610.773681640625,239.34219360351562 L610.7830810546875,238.89010620117188 L610.6981201171875,238.1980743408203 L610.4346313476562,237.3948516845703 L609.9285278320312,236.71310424804688 L609.17529296875,236.24790954589844 L608.20263671875,236.0841522216797 L607.0640869140625,236.27919006347656 L605.8289794921875,236.8900909423828 L604.60888671875,237.9170684814453 L603.535888671875,239.29800415039062 L602.7418823242188,240.899658203125 L602.3439331054688,242.55332946777344 L602.4183349609375,244.0721893310547 L602.9677734375,245.274658203125 L603.9398803710938,246.0050811767578 L605.2230224609375,246.16050720214844 L606.6859130859375,245.6942901611328 L608.204345703125,244.6301727294922 L609.6746826171875,243.04852294921875 L611.0108032226562,241.06890869140625 L612.163330078125,238.8295440673828 L613.1205444335938,236.4831085205078 L613.9072265625,234.18710327148438 L614.5520629882812,232.11367797851562 L615.0687255859375,230.39903259277344 L615.453857421875,229.12844848632812 L615.6947631835938,228.35145568847656 L615.7882080078125,228.09841918945312 L615.7361450195312,228.39556884765625 L615.552734375,229.286376953125 L615.2669067382812,230.75039672851562 L614.921142578125,232.6786346435547 L614.5703125,234.92095947265625 L614.2713012695312,237.3150177001953 L614.071044921875,239.70135498046875 L614.0103759765625,241.96270751953125 L614.1036376953125,243.96478271484375 L614.3206176757812,245.57432556152344 L614.5541381835938,246.63926696777344 L614.7242431640625,247.18443298339844 " fill="none" stroke="black" stroke-linecap="round" stroke-width="2" /></svg>